<svg width="60" height="60" viewBox="0 0 60 60" fill="none" xmlns="http://www.w3.org/2000/svg">
<rect x="0.5" y="0.5" width="59" height="59" rx="29.5" stroke="#1E5E46"/>
<path d="M37.5 25.4H24.1667C23.4508 25.4 22.7733 25.0838 22.3042 24.5508C22.7625 24.0289 23.4283 23.7 24.1667 23.7H39.1667C40.2567 23.6949 40.2558 22.0043 39.1667 22H24.1667C21.8658 22 20 23.9032 20 26.25V34.75C20 37.0969 21.8658 39 24.1667 39H37.5C38.8808 39 40 37.8584 40 36.45V27.95C40 26.5416 38.8808 25.4 37.5 25.4ZM36.6667 33.05C35.5767 33.0449 35.5767 31.3551 36.6667 31.35C37.7567 31.3551 37.7567 33.0449 36.6667 33.05Z" fill="#1E5E46"/>
</svg>
