<svg width="60" height="60" viewBox="0 0 60 60" fill="none" xmlns="http://www.w3.org/2000/svg">
<rect x="0.5" y="0.5" width="59" height="59" rx="29.5" stroke="#1E5E46"/>
<path d="M31.6 25.8333V20.3833C32.34 20.6744 33.0122 21.1261 33.572 21.7083L36.3592 24.6133C36.9188 25.1957 37.3527 25.8957 37.632 26.6667H32.4C32.1878 26.6667 31.9843 26.5789 31.8343 26.4226C31.6843 26.2663 31.6 26.0543 31.6 25.8333ZM38 28.7375V35.8333C37.9987 36.938 37.5769 37.997 36.827 38.7782C36.0772 39.5593 35.0605 39.9987 34 40H26C24.9395 39.9987 23.9228 39.5593 23.173 38.7782C22.4231 37.997 22.0013 36.938 22 35.8333V24.1667C22.0013 23.062 22.4231 22.003 23.173 21.2218C23.9228 20.4407 24.9395 20.0013 26 20H29.612C29.7424 20 29.8712 20.0108 30 20.02V25.8333C30 26.4964 30.2529 27.1323 30.7029 27.6011C31.153 28.0699 31.7635 28.3333 32.4 28.3333H37.9808C37.9896 28.4675 38 28.6017 38 28.7375ZM31.6 35.8333C31.6 35.6123 31.5157 35.4004 31.3657 35.2441C31.2157 35.0878 31.0122 35 30.8 35H26.8C26.5878 35 26.3843 35.0878 26.2343 35.2441C26.0843 35.4004 26 35.6123 26 35.8333C26 36.0543 26.0843 36.2663 26.2343 36.4226C26.3843 36.5789 26.5878 36.6667 26.8 36.6667H30.8C31.0122 36.6667 31.2157 36.5789 31.3657 36.4226C31.5157 36.2663 31.6 36.0543 31.6 35.8333ZM34 32.5C34 32.279 33.9157 32.067 33.7657 31.9107C33.6157 31.7545 33.4122 31.6667 33.2 31.6667H26.8C26.5878 31.6667 26.3843 31.7545 26.2343 31.9107C26.0843 32.067 26 32.279 26 32.5C26 32.721 26.0843 32.933 26.2343 33.0893C26.3843 33.2455 26.5878 33.3333 26.8 33.3333H33.2C33.4122 33.3333 33.6157 33.2455 33.7657 33.0893C33.9157 32.933 34 32.721 34 32.5Z" fill="#1E5E46"/>
</svg>
