<svg width="60" height="60" viewBox="0 0 60 60" fill="none" xmlns="http://www.w3.org/2000/svg">
<rect x="0.5" y="0.5" width="59" height="59" rx="29.5" stroke="#1E5E46"/>
<path d="M30.5 30C33.2614 30 35.5 27.7614 35.5 25C35.5 22.2386 33.2614 20 30.5 20C27.7386 20 25.5 22.2386 25.5 25C25.5 27.7614 27.7386 30 30.5 30Z" fill="#1E5E46"/>
<path d="M30.5 31.6641C26.3598 31.6687 23.0046 35.0238 23 39.1641C23 39.6243 23.3731 39.9974 23.8333 39.9974H37.1666C37.6269 39.9974 38 39.6243 38 39.1641C37.9954 35.0238 34.6402 31.6686 30.5 31.6641Z" fill="#1E5E46"/>
</svg>
