<svg width="60" height="60" viewBox="0 0 60 60" fill="none" xmlns="http://www.w3.org/2000/svg">
<rect x="0.5" y="0.5" width="59" height="59" rx="29.5" stroke="#1E5E46"/>
<path d="M39.7637 24.5666C39.6546 24.1858 38.8261 23.5833 38.1434 24.2666C37.4606 24.95 35.3824 27.0299 35.3824 27.0299C34.7271 27.6857 33.6556 27.6665 33.007 26.9999C32.3417 26.3507 32.3209 25.2774 32.9761 24.6216C32.9761 24.6216 35.0544 22.5417 35.7371 21.8584C36.4199 21.1751 35.8179 20.3459 35.4374 20.2368C34.8146 20.0584 34.1693 19.9801 33.5082 20.0043C30.3667 20.1159 27.719 22.67 27.5075 25.8083C27.47 26.3624 27.5033 26.9057 27.6049 27.4332C27.7565 28.2165 27.4692 29.0207 26.9055 29.5856L20.7242 35.7546C19.7567 36.7237 19.7625 38.3037 20.7183 39.2803C21.6942 40.2378 23.2728 40.2436 24.2411 39.2753L30.4225 33.1055C30.9862 32.5414 31.7897 32.2539 32.5732 32.4056C33.1002 32.5072 33.6431 32.5405 34.1968 32.503C37.3332 32.2914 39.8844 29.6415 39.996 26.4974C40.0193 25.8358 39.9418 25.1899 39.7637 24.5666Z" fill="#1E5E46"/>
</svg>
