<svg width="148" height="33" viewBox="0 0 148 33" fill="none" xmlns="http://www.w3.org/2000/svg">
<path d="M0.668687 18.5995C0.542578 18.6001 0.418935 18.5444 0.312124 18.4388C0.205313 18.3332 0.119717 18.182 0.065282 18.0028C0.0108466 17.8237 -0.010194 17.6238 0.00460474 17.4266C0.0194034 17.2293 0.069434 17.0427 0.148884 16.8884L6.74638 6.18119C6.79587 6.09121 6.86331 6.0304 6.93763 6.00875C7.01195 5.9871 7.08874 6.0059 7.15538 6.06205C7.22203 6.1182 7.27457 6.20837 7.3044 6.31777C7.33422 6.42716 7.33954 6.54927 7.3195 6.66406L6.03999 12.9834C6.00226 13.1425 5.98958 13.3136 6.00306 13.482C6.01653 13.6505 6.05575 13.8113 6.11735 13.9507C6.17895 14.09 6.26108 14.2037 6.35672 14.2821C6.45235 14.3605 6.55862 14.4011 6.66641 14.4005H11.3313C11.4574 14.3999 11.5811 14.4556 11.6879 14.5612C11.7947 14.6668 11.8803 14.818 11.9347 14.9972C11.9892 15.1763 12.0102 15.3762 11.9954 15.5735C11.9806 15.7707 11.9306 15.9573 11.8511 16.1116L5.25362 26.8188C5.20413 26.9088 5.13669 26.9696 5.06237 26.9912C4.98805 27.0129 4.91126 26.9941 4.84462 26.938C4.77797 26.8818 4.72543 26.7916 4.6956 26.6822C4.66578 26.5728 4.66046 26.4507 4.6805 26.3359L5.96001 20.0166C5.99774 19.8575 6.01042 19.6864 5.99694 19.518C5.98347 19.3495 5.94425 19.1887 5.88265 19.0493C5.82105 18.91 5.73892 18.7963 5.64328 18.7179C5.54765 18.6395 5.44138 18.5989 5.33359 18.5995H0.668687Z" fill="#B5EB3D"/>
<path d="M28.28 26.24C26.08 26.24 24.23 25.79 22.73 24.89C21.23 23.97 20.1 22.7 19.34 21.08C18.58 19.46 18.2 17.58 18.2 15.44C18.2 13.3 18.59 11.41 19.37 9.77C20.15 8.13 21.29 6.85 22.79 5.93C24.29 4.99 26.12 4.52 28.28 4.52C29.88 4.52 31.29 4.79 32.51 5.33C33.73 5.87 34.72 6.64 35.48 7.64C36.26 8.62 36.76 9.83 36.98 11.27H33.35C33.07 10.25 32.5 9.45 31.64 8.87C30.78 8.29 29.66 8 28.28 8C26.78 8 25.57 8.35 24.65 9.05C23.73 9.75 23.06 10.65 22.64 11.75C22.24 12.85 22.04 14.03 22.04 15.29C22.04 16.59 22.25 17.81 22.67 18.95C23.11 20.09 23.8 21.01 24.74 21.71C25.68 22.41 26.89 22.76 28.37 22.76C29.29 22.76 30.09 22.63 30.77 22.37C31.47 22.11 32.05 21.74 32.51 21.26C32.99 20.76 33.32 20.18 33.5 19.52H37.31C37.07 20.94 36.53 22.15 35.69 23.15C34.87 24.15 33.82 24.92 32.54 25.46C31.28 25.98 29.86 26.24 28.28 26.24ZM45.5281 26.21C43.9081 26.21 42.5081 25.88 41.3281 25.22C40.1681 24.56 39.2681 23.62 38.6281 22.4C38.0081 21.18 37.6981 19.75 37.6981 18.11C37.6981 16.45 38.0181 15.02 38.6581 13.82C39.2981 12.6 40.1981 11.65 41.3581 10.97C42.5181 10.29 43.9081 9.95 45.5281 9.95C47.1281 9.95 48.5081 10.29 49.6681 10.97C50.8281 11.65 51.7181 12.61 52.3381 13.85C52.9581 15.07 53.2681 16.51 53.2681 18.17C53.2681 19.79 52.9581 21.21 52.3381 22.43C51.7381 23.63 50.8581 24.56 49.6981 25.22C48.5381 25.88 47.1481 26.21 45.5281 26.21ZM45.4981 22.88C46.4981 22.88 47.2981 22.66 47.8981 22.22C48.5181 21.78 48.9681 21.2 49.2481 20.48C49.5281 19.76 49.6681 18.98 49.6681 18.14C49.6681 17.3 49.5281 16.51 49.2481 15.77C48.9681 15.03 48.5181 14.44 47.8981 14C47.2981 13.54 46.4981 13.31 45.4981 13.31C44.4981 13.31 43.6881 13.54 43.0681 14C42.4481 14.44 41.9981 15.03 41.7181 15.77C41.4381 16.49 41.2981 17.28 41.2981 18.14C41.2981 18.98 41.4381 19.77 41.7181 20.51C42.0181 21.23 42.4681 21.81 43.0681 22.25C43.6881 22.67 44.4981 22.88 45.4981 22.88ZM55.5155 26V13.43H53.0555V10.19H55.5155V8.69C55.5155 7.49 55.6955 6.51 56.0555 5.75C56.4155 4.97 56.9855 4.4 57.7655 4.04C58.5655 3.68 59.5855 3.5 60.8255 3.5H63.1655V6.74H61.2455C60.7055 6.74 60.2855 6.83 59.9855 7.01C59.6855 7.19 59.4655 7.46 59.3255 7.82C59.2055 8.16 59.1455 8.58 59.1455 9.08V10.19H63.1655V13.43H59.1455V26H55.5155ZM65.0534 26V13.43H62.5934V10.19H65.0534V8.69C65.0534 7.49 65.2334 6.51 65.5934 5.75C65.9534 4.97 66.5234 4.4 67.3034 4.04C68.1034 3.68 69.1234 3.5 70.3634 3.5H72.7034V6.74H70.7834C70.2434 6.74 69.8234 6.83 69.5234 7.01C69.2234 7.19 69.0034 7.46 68.8634 7.82C68.7434 8.16 68.6834 8.58 68.6834 9.08V10.19H72.7034V13.43H68.6834V26H65.0534ZM79.9684 26.21C78.3284 26.21 76.9284 25.87 75.7684 25.19C74.6284 24.51 73.7584 23.57 73.1584 22.37C72.5784 21.15 72.2884 19.74 72.2884 18.14C72.2884 16.54 72.5884 15.13 73.1884 13.91C73.8084 12.67 74.6884 11.7 75.8284 11C76.9884 10.3 78.3784 9.95 79.9984 9.95C81.1984 9.95 82.2484 10.17 83.1484 10.61C84.0484 11.03 84.7984 11.61 85.3984 12.35C86.0184 13.09 86.4784 13.93 86.7784 14.87C87.0784 15.81 87.2184 16.8 87.1984 17.84C87.1784 18.08 87.1584 18.32 87.1384 18.56C87.1184 18.78 87.0884 19.02 87.0484 19.28H75.9484C76.0084 19.98 76.1884 20.62 76.4884 21.2C76.8084 21.78 77.2484 22.24 77.8084 22.58C78.3884 22.92 79.1084 23.09 79.9684 23.09C80.4684 23.09 80.9484 23.03 81.4084 22.91C81.8684 22.77 82.2684 22.57 82.6084 22.31C82.9684 22.05 83.2084 21.72 83.3284 21.32H86.9884C86.7284 22.46 86.2484 23.39 85.5484 24.11C84.8484 24.83 84.0084 25.36 83.0284 25.7C82.0684 26.04 81.0484 26.21 79.9684 26.21ZM76.0084 16.55H83.6284C83.6284 15.89 83.4784 15.29 83.1784 14.75C82.8784 14.21 82.4484 13.79 81.8884 13.49C81.3484 13.17 80.6884 13.01 79.9084 13.01C79.0684 13.01 78.3684 13.18 77.8084 13.52C77.2484 13.86 76.8184 14.3 76.5184 14.84C76.2184 15.38 76.0484 15.95 76.0084 16.55ZM95.3949 26.21C93.7549 26.21 92.3549 25.87 91.1949 25.19C90.0549 24.51 89.1849 23.57 88.5849 22.37C88.0049 21.15 87.7149 19.74 87.7149 18.14C87.7149 16.54 88.0149 15.13 88.6149 13.91C89.2349 12.67 90.1149 11.7 91.2549 11C92.4149 10.3 93.8049 9.95 95.4249 9.95C96.6249 9.95 97.6749 10.17 98.5749 10.61C99.4749 11.03 100.225 11.61 100.825 12.35C101.445 13.09 101.905 13.93 102.205 14.87C102.505 15.81 102.645 16.8 102.625 17.84C102.605 18.08 102.585 18.32 102.565 18.56C102.545 18.78 102.515 19.02 102.475 19.28H91.3749C91.4349 19.98 91.6149 20.62 91.9149 21.2C92.2349 21.78 92.6749 22.24 93.2349 22.58C93.8149 22.92 94.5349 23.09 95.3949 23.09C95.8949 23.09 96.3749 23.03 96.8349 22.91C97.2949 22.77 97.6949 22.57 98.0349 22.31C98.3949 22.05 98.6349 21.72 98.7549 21.32H102.415C102.155 22.46 101.675 23.39 100.975 24.11C100.275 24.83 99.4349 25.36 98.4549 25.7C97.4949 26.04 96.4749 26.21 95.3949 26.21ZM91.4349 16.55H99.0549C99.0549 15.89 98.9049 15.29 98.6049 14.75C98.3049 14.21 97.8749 13.79 97.3149 13.49C96.7749 13.17 96.1149 13.01 95.3349 13.01C94.4949 13.01 93.7949 13.18 93.2349 13.52C92.6749 13.86 92.2449 14.3 91.9449 14.84C91.6449 15.38 91.4749 15.95 91.4349 16.55ZM113.461 26.24C111.281 26.24 109.421 25.78 107.881 24.86C106.361 23.94 105.191 22.66 104.371 21.02C103.571 19.38 103.171 17.51 103.171 15.41C103.171 13.27 103.581 11.39 104.401 9.77C105.221 8.13 106.401 6.85 107.941 5.93C109.481 4.99 111.341 4.52 113.521 4.52C115.701 4.52 117.551 4.98 119.071 5.9C120.611 6.82 121.791 8.1 122.611 9.74C123.431 11.36 123.841 13.23 123.841 15.35C123.841 17.45 123.431 19.32 122.611 20.96C121.811 22.6 120.631 23.89 119.071 24.83C117.531 25.77 115.661 26.24 113.461 26.24ZM113.521 22.76C115.041 22.76 116.281 22.41 117.241 21.71C118.201 21.01 118.901 20.1 119.341 18.98C119.801 17.86 120.031 16.67 120.031 15.41C120.031 14.45 119.901 13.53 119.641 12.65C119.401 11.77 119.011 10.98 118.471 10.28C117.951 9.58 117.281 9.03 116.461 8.63C115.641 8.21 114.661 8 113.521 8C112.021 8 110.781 8.35 109.801 9.05C108.841 9.75 108.131 10.66 107.671 11.78C107.211 12.9 106.981 14.11 106.981 15.41C106.981 16.69 107.211 17.89 107.671 19.01C108.131 20.13 108.841 21.04 109.801 21.74C110.781 22.42 112.021 22.76 113.521 22.76ZM124.998 26V10.19H128.418L128.628 12.2C129.048 11.64 129.538 11.2 130.098 10.88C130.658 10.56 131.248 10.33 131.868 10.19C132.488 10.03 133.068 9.95 133.608 9.95C135.108 9.95 136.288 10.28 137.148 10.94C138.028 11.6 138.648 12.48 139.008 13.58C139.368 14.68 139.548 15.91 139.548 17.27V26H135.888V17.87C135.888 17.29 135.848 16.73 135.768 16.19C135.688 15.63 135.528 15.13 135.288 14.69C135.068 14.25 134.748 13.9 134.328 13.64C133.908 13.38 133.348 13.25 132.648 13.25C131.788 13.25 131.058 13.48 130.458 13.94C129.858 14.4 129.408 15.02 129.108 15.8C128.808 16.56 128.658 17.43 128.658 18.41V26H124.998Z" fill="#FDFDFD"/>
</svg>
