<svg width="60" height="60" viewBox="0 0 60 60" fill="none" xmlns="http://www.w3.org/2000/svg">
<rect x="0.5" y="0.5" width="59" height="59" rx="29.5" stroke="#1E5E46"/>
<path d="M30.8542 22.5V20.8333C30.8542 20.6123 30.942 20.4004 31.0982 20.2441C31.2545 20.0878 31.4665 20 31.6875 20C31.9085 20 32.1205 20.0878 32.2768 20.2441C32.433 20.4004 32.5208 20.6123 32.5208 20.8333V22.5C32.5208 22.721 32.433 22.933 32.2768 23.0893C32.1205 23.2455 31.9085 23.3333 31.6875 23.3333C31.4665 23.3333 31.2545 23.2455 31.0982 23.0893C30.942 22.933 30.8542 22.721 30.8542 22.5ZM28.3542 23.3333C28.5752 23.3333 28.7871 23.2455 28.9434 23.0893C29.0997 22.933 29.1875 22.721 29.1875 22.5V20.8333C29.1875 20.6123 29.0997 20.4004 28.9434 20.2441C28.7871 20.0878 28.5752 20 28.3542 20C28.1332 20 27.9212 20.0878 27.7649 20.2441C27.6086 20.4004 27.5208 20.6123 27.5208 20.8333V22.5C27.5208 22.721 27.6086 22.933 27.7649 23.0893C27.9212 23.2455 28.1332 23.3333 28.3542 23.3333ZM25.0208 23.3333C25.2418 23.3333 25.4538 23.2455 25.6101 23.0893C25.7664 22.933 25.8542 22.721 25.8542 22.5V20.8333C25.8542 20.6123 25.7664 20.4004 25.6101 20.2441C25.4538 20.0878 25.2418 20 25.0208 20C24.7998 20 24.5879 20.0878 24.4316 20.2441C24.2753 20.4004 24.1875 20.6123 24.1875 20.8333V22.5C24.1875 22.721 24.2753 22.933 24.4316 23.0893C24.5879 23.2455 24.7998 23.3333 25.0208 23.3333ZM40 30.9525C39.9727 31.8169 39.609 32.6365 38.9864 33.2369C38.3638 33.8372 37.5315 34.1708 36.6667 34.1667H34.6042C34.0735 34.9445 33.3592 35.5796 32.5246 36.0156C31.69 36.4517 30.7608 36.6753 29.8192 36.6667H26.8467C25.8892 36.6762 24.9445 36.4457 24.099 35.9962C23.2536 35.5467 22.5342 34.8925 22.0067 34.0933C20.8267 32.2108 17.9558 25.3092 22.5 25H34.1667C34.5641 25.0108 34.9536 25.1132 35.305 25.2991C35.6564 25.4851 35.9601 25.7497 36.1925 26.0722C36.4249 26.3948 36.5797 26.7666 36.6449 27.1588C36.7101 27.551 36.6839 27.9529 36.5683 28.3333C38.6275 28.3333 40 29.3375 40 30.9525ZM38.3333 30.9525C38.4067 30.18 37.2917 29.9325 36.285 30C36.0987 30.8564 35.8326 31.6934 35.49 32.5H36.6667C37.0897 32.5043 37.4983 32.3462 37.8084 32.0583C38.1184 31.7705 38.3063 31.3747 38.3333 30.9525ZM35.8333 38.3333H20.8333C20.6123 38.3333 20.4004 38.4211 20.2441 38.5774C20.0878 38.7337 20 38.9457 20 39.1667C20 39.3877 20.0878 39.5996 20.2441 39.7559C20.4004 39.9122 20.6123 40 20.8333 40H35.8333C36.0543 40 36.2663 39.9122 36.4226 39.7559C36.5789 39.5996 36.6667 39.3877 36.6667 39.1667C36.6667 38.9457 36.5789 38.7337 36.4226 38.5774C36.2663 38.4211 36.0543 38.3333 35.8333 38.3333Z" fill="#1E5E46"/>
</svg>
